<svg xmlns="http://www.w3.org/2000/svg" viewBox="0 0 800 520" fill="none">
  <defs>
    <linearGradient id="g1" x1="0" y1="0" x2="1" y2="1">
      <stop offset="0" stop-color="#ffd67a" stop-opacity="0.85"/>
      <stop offset="1" stop-color="#ff8f2f" stop-opacity="0.85"/>
    </linearGradient>
    <linearGradient id="g2" x1="0" y1="0" x2="1" y2="1">
      <stop offset="0" stop-color="#59d6ff" stop-opacity="0.7"/>
      <stop offset="1" stop-color="#2da8ff" stop-opacity="0.7"/>
    </linearGradient>
    <filter id="blur" x="-20%" y="-20%" width="140%" height="140%">
      <feGaussianBlur stdDeviation="12"/>
    </filter>
  </defs>

  <circle cx="620" cy="110" r="84" fill="url(#g2)" filter="url(#blur)"/>
  <circle cx="150" cy="410" r="90" fill="url(#g1)" filter="url(#blur)"/>

  <g opacity="0.95" transform="translate(380 90)">
    <ellipse cx="120" cy="170" rx="118" ry="112" fill="#fff6dc"/>
    <path d="M29 92L66 26L101 95Z" fill="#fff6dc"/>
    <path d="M136 95L173 26L209 92Z" fill="#fff6dc"/>
    <path d="M74 73L82 52L95 72Z" fill="#ffb07e"/>
    <path d="M145 72L158 52L166 73Z" fill="#ffb07e"/>

    <ellipse cx="87" cy="168" rx="11" ry="13" fill="#1b2b3a"/>
    <ellipse cx="153" cy="168" rx="11" ry="13" fill="#1b2b3a"/>
    <path d="M120 186L111 200L129 200Z" fill="#ff8f7b"/>
    <path d="M92 212C102 223 138 223 148 212" stroke="#1b2b3a" stroke-width="6" stroke-linecap="round"/>

    <path d="M6 212C-8 195 8 170 29 174" stroke="#fff6dc" stroke-width="18" stroke-linecap="round"/>
    <path d="M231 212C245 195 229 170 208 174" stroke="#fff6dc" stroke-width="18" stroke-linecap="round"/>

    <rect x="64" y="238" width="114" height="96" rx="16" fill="#f2f7ff"/>
    <rect x="78" y="252" width="27" height="62" rx="8" fill="#ff6464"/>
    <rect x="108" y="252" width="27" height="62" rx="8" fill="#ffd95f"/>
    <rect x="138" y="252" width="27" height="62" rx="8" fill="#8cf98f"/>
  </g>

  <g opacity="0.6" stroke="#8adfff" stroke-width="4">
    <path d="M50 95H220"/>
    <path d="M80 125H250"/>
    <path d="M560 458H740"/>
  </g>
</svg>
